<svg width="22" height="16" viewBox="0 0 22 16" fill="none" xmlns="http://www.w3.org/2000/svg">
<path d="M15.6124 3.45502C15.4053 3.24816 15.0698 3.24835 14.8629 3.45544C14.656 3.66253 14.6562 3.99811 14.8633 4.20497L15.6124 3.45502ZM14.8633 11.945C14.6562 12.1519 14.656 12.4875 14.8629 12.6946C15.0698 12.9017 15.4053 12.9018 15.6124 12.695L14.8633 11.945ZM6.38331 12.685C6.5904 12.8918 6.92598 12.8917 7.13284 12.6846C7.3397 12.4775 7.33952 12.1419 7.13242 11.935L6.38331 12.685ZM7.13242 4.19497C7.33952 3.98811 7.3397 3.65253 7.13284 3.44544C6.92598 3.23835 6.5904 3.23816 6.38331 3.44502L7.13242 4.19497ZM18.4427 0.62529C18.2357 0.418281 17.9002 0.41823 17.6932 0.625177C17.4861 0.832123 17.4861 1.1677 17.693 1.37471L18.4427 0.62529ZM17.693 14.7653C17.4861 14.9723 17.4861 15.3079 17.6932 15.5148C17.9002 15.7218 18.2357 15.7217 18.4427 15.5147L17.693 14.7653ZM3.55304 15.5147C3.75999 15.7217 4.09557 15.7218 4.30257 15.5148C4.50958 15.3079 4.50963 14.9723 4.30269 14.7653L3.55304 15.5147ZM4.30269 1.37471C4.50963 1.1677 4.50958 0.832123 4.30257 0.625177C4.09557 0.41823 3.75999 0.418281 3.55304 0.62529L4.30269 1.37471ZM14.8633 4.20497C15.8904 5.23097 16.4676 6.62321 16.4676 8.075H17.5276C17.5276 6.34188 16.8386 4.67985 15.6124 3.45502L14.8633 4.20497ZM16.4676 8.075C16.4676 9.52679 15.8904 10.919 14.8633 11.945L15.6124 12.695C16.8386 11.4702 17.5276 9.80812 17.5276 8.075H16.4676ZM7.13242 11.935C6.10528 10.909 5.52814 9.51679 5.52814 8.065H4.46814C4.46814 9.79812 5.15712 11.4602 6.38331 12.685L7.13242 11.935ZM5.52814 8.065C5.52814 6.61321 6.10528 5.22097 7.13242 4.19497L6.38331 3.44502C5.15712 4.66985 4.46814 6.33188 4.46814 8.065H5.52814ZM17.693 1.37471C21.39 5.07274 21.39 11.0673 17.693 14.7653L18.4427 15.5147C22.5534 11.4027 22.5534 4.73725 18.4427 0.62529L17.693 1.37471ZM4.30269 14.7653C0.605771 11.0673 0.605771 5.07274 4.30269 1.37471L3.55304 0.62529C-0.55768 4.73725 -0.55768 11.4027 3.55304 15.5147L4.30269 14.7653Z" fill="white"/>
</svg>
