<svg width="17" height="17" viewBox="0 0 17 17" fill="none" xmlns="http://www.w3.org/2000/svg">
<path fill-rule="evenodd" clip-rule="evenodd" d="M16.0275 10.5329L10.625 15.9375L7.96875 16.4688L8.5 13.8125L13.9053 8.40792C14.1861 8.12664 14.5672 7.96857 14.9646 7.96857C15.362 7.96857 15.7431 8.12664 16.0239 8.40792L16.0303 8.41359C16.6146 8.99966 16.6133 9.94841 16.0275 10.5329Z" stroke="white" stroke-width="1.0625" stroke-linecap="round" stroke-linejoin="round"/>
<path d="M5.84094 14.3438H1.59094C1.00414 14.3438 0.528442 13.8681 0.528442 13.2812V1.59375C0.528442 1.00695 1.00414 0.53125 1.59094 0.53125H12.2159C12.8027 0.53125 13.2784 1.00695 13.2784 1.59375V6.375" stroke="white" stroke-width="1.0625" stroke-linecap="round" stroke-linejoin="round"/>
<path d="M5.84094 3.71874H10.0909" stroke="white" stroke-width="1.0625" stroke-linecap="round" stroke-linejoin="round"/>
<path d="M3.71594 6.90624H10.0909" stroke="white" stroke-width="1.0625" stroke-linecap="round" stroke-linejoin="round"/>
<path d="M3.71594 10.0937H9.02844" stroke="white" stroke-width="1.0625" stroke-linecap="round" stroke-linejoin="round"/>
</svg>
