<svg width="18" height="18" viewBox="0 0 18 18" fill="none" xmlns="http://www.w3.org/2000/svg">
<path fill-rule="evenodd" clip-rule="evenodd" d="M7.76092 14.3043C7.1486 14.3043 6.65222 13.808 6.65222 13.1957V7.65218C6.65222 7.03986 7.1486 6.54348 7.76092 6.54348H15.5218C16.1341 6.54348 16.6305 7.03986 16.6305 7.65218V13.1957C16.6305 13.808 16.1341 14.3043 15.5218 14.3043H14.4131V17.6304L11.087 14.3043H7.76092Z" stroke="white" stroke-width="1.1087" stroke-linecap="round" stroke-linejoin="round"/>
<path d="M4.43478 9.86957L2.21739 12.087V8.76087H1.1087C0.49638 8.76087 0 8.26449 0 7.65217V2.1087C0 1.49638 0.49638 1 1.1087 1H8.86957C9.48188 1 9.97826 1.49638 9.97826 2.1087V4.32609" stroke="white" stroke-width="1.1087" stroke-linecap="round" stroke-linejoin="round"/>
</svg>
