<svg width="17" height="17" viewBox="0 0 17 17" fill="none" xmlns="http://www.w3.org/2000/svg">
<path fill-rule="evenodd" clip-rule="evenodd" d="M7.3232 8.73604C7.32397 9.11248 7.01963 9.41838 6.6432 9.41953H1.2032C1.02236 9.41916 0.849083 9.34692 0.721539 9.21872C0.593994 9.09052 0.522641 8.91688 0.523197 8.73604V1.21071C0.522826 1.02981 0.594334 0.856167 0.72199 0.727988C0.849646 0.599809 1.02299 0.527591 1.20389 0.527222L6.64389 0.536288C7.02006 0.537826 7.32397 0.843609 7.3232 1.21978V8.73604Z" stroke="white" stroke-width="1.04615" stroke-linecap="round" stroke-linejoin="round"/>
<path fill-rule="evenodd" clip-rule="evenodd" d="M16.2126 4.564C16.2099 4.93697 15.9056 5.23725 15.5326 5.23493H10.0926C9.91342 5.23623 9.74108 5.16625 9.61354 5.04041C9.48599 4.91456 9.4137 4.74317 9.4126 4.564V1.20724C9.4149 0.834653 9.71861 0.534375 10.0912 0.536307L15.5312 0.52724C15.9046 0.524533 16.2095 0.824815 16.2126 1.19817V4.564Z" stroke="white" stroke-width="1.04615" stroke-linecap="round" stroke-linejoin="round"/>
<path fill-rule="evenodd" clip-rule="evenodd" d="M7.32319 15.5465C7.32209 15.7261 7.24967 15.8979 7.12189 16.0242C6.9941 16.1504 6.82141 16.2207 6.6418 16.2195L1.2018 16.2105C0.828826 16.212 0.525115 15.9111 0.523193 15.5382V12.1842C0.524115 12.0048 0.596299 11.8332 0.723845 11.7071C0.85139 11.581 1.02383 11.5107 1.20319 11.5119H6.64319C7.01655 11.5099 7.32089 11.8108 7.32319 12.1842V15.5465Z" stroke="white" stroke-width="1.04615" stroke-linecap="round" stroke-linejoin="round"/>
<path fill-rule="evenodd" clip-rule="evenodd" d="M10.0933 16.2196C9.91227 16.2192 9.73882 16.1469 9.61115 16.0186C9.48347 15.8902 9.41205 15.7164 9.4126 15.5354V8.01146C9.41205 7.83055 9.48338 7.65684 9.6109 7.52853C9.73843 7.40022 9.9117 7.32782 10.0926 7.32727H15.5326C15.7135 7.32782 15.8868 7.40022 16.0143 7.52853C16.1418 7.65684 16.2132 7.83055 16.2126 8.01146V15.5263C16.2134 15.9026 15.9096 16.2086 15.5333 16.2105L10.0933 16.2196Z" stroke="white" stroke-width="1.04615" stroke-linecap="round" stroke-linejoin="round"/>
</svg>
