<svg width="17" height="17" viewBox="0 0 17 17" fill="none" xmlns="http://www.w3.org/2000/svg">
<path fill-rule="evenodd" clip-rule="evenodd" d="M7.47008 1.72692C7.73295 2.01872 8.10726 2.18531 8.5 2.18531C8.89274 2.18531 9.26705 2.01872 9.52992 1.72692L10.2 0.991673C10.5935 0.556149 11.2185 0.415344 11.7608 0.640042C12.303 0.864741 12.6453 1.40633 12.6154 1.99255L12.5651 2.98421C12.5455 3.37541 12.6921 3.75668 12.9689 4.03385C13.2456 4.31101 13.6267 4.45823 14.0179 4.43913L15.0096 4.38884C15.5954 4.35996 16.1361 4.70253 16.3602 5.24455C16.5844 5.78658 16.4435 6.41098 16.0083 6.80426L15.2703 7.47009C14.9788 7.73332 14.8125 8.10766 14.8125 8.50036C14.8125 8.89307 14.9788 9.2674 15.2703 9.53063L16.0083 10.1965C16.4439 10.59 16.5847 11.215 16.36 11.7572C16.1353 12.2995 15.5937 12.6417 15.0075 12.6119L14.0158 12.5616C13.6237 12.5414 13.2415 12.6884 12.9638 12.966C12.6862 13.2436 12.5393 13.6258 12.5595 14.0179L12.6097 15.0096C12.6357 15.5927 12.294 16.1297 11.7548 16.3532C11.2156 16.5767 10.5941 16.4389 10.2 16.0083L9.53346 15.271C9.27036 14.9796 8.89614 14.8133 8.50354 14.8133C8.11095 14.8133 7.73673 14.9796 7.47363 15.271L6.80425 16.0083C6.4107 16.4409 5.78818 16.5803 5.24772 16.3569C4.70726 16.1335 4.36489 15.5952 4.39167 15.011L4.44267 14.0193C4.46284 13.6273 4.31589 13.245 4.03828 12.9674C3.76067 12.6898 3.37841 12.5428 2.98633 12.563L1.99467 12.6133C1.40868 12.6439 0.866866 12.3024 0.641667 11.7605C0.416468 11.2187 0.556628 10.5938 0.991667 10.2L1.72904 9.53417C2.02047 9.27094 2.18678 8.89661 2.18678 8.5039C2.18678 8.1112 2.02047 7.73686 1.72904 7.47363L0.991667 6.80426C0.558087 6.41095 0.418135 5.78777 0.641907 5.24684C0.86568 4.70591 1.40499 4.36372 1.98971 4.39167L2.98137 4.44196C3.37421 4.46262 3.75734 4.31548 4.03537 4.03718C4.31339 3.75889 4.46016 3.37562 4.43913 2.9828L4.39167 1.99042C4.36425 1.40596 4.70639 0.867091 5.24701 0.643289C5.78762 0.419486 6.41053 0.558843 6.80425 0.991673L7.47008 1.72692Z" stroke="white" stroke-width="1.0625" stroke-linecap="round" stroke-linejoin="round"/>
<circle cx="8.5" cy="8.5007" r="3.1875" stroke="white" stroke-width="1.0625" stroke-linecap="round" stroke-linejoin="round"/>
</svg>
