<svg width="19" height="18" viewBox="0 0 19 18" fill="none" xmlns="http://www.w3.org/2000/svg">
<path fill-rule="evenodd" clip-rule="evenodd" d="M9.06332 7.70047L2.94934 13.9926C2.31676 14.657 2.39521 15.7002 3.14593 16.2658C3.82007 16.8756 4.90175 16.8409 5.46815 16.1348L10.9468 9.28042L11.2673 9.57488C11.3335 9.61659 11.3996 9.65831 11.4819 9.64082L11.5093 9.63499C11.5642 9.62334 11.6133 9.58499 11.6625 9.54665L12.3764 8.72551L13.2992 9.56135C13.1422 9.90152 13.2217 10.2751 13.5034 10.522L13.857 10.8373C14.2106 11.1527 14.7486 11.122 15.0758 10.7735L17.1144 8.49937C17.4142 8.15675 17.3943 7.65892 17.0407 7.3436L16.6871 7.02829C16.4054 6.78137 16.0205 6.72371 15.6868 6.90622L10.9631 2.75037C11.0926 2.41603 11.0406 2.0366 10.7589 1.78968L10.4052 1.47437C10.079 1.15322 9.4862 1.19556 9.18646 1.53819L7.1535 3.83903C6.85375 4.18166 6.87359 4.67948 7.22721 4.9948L7.57515 5.28343C7.82382 5.50949 8.23606 5.56132 8.56984 5.37881L9.49264 6.21464L8.757 7.06829C8.67 7.19835 8.67662 7.36429 8.78157 7.45355L9.06332 7.70047ZM10.062 1.88202L10.4099 2.17065C10.5206 2.28659 10.5272 2.45254 10.4345 2.55591L8.40723 4.88344C8.29281 5.01932 8.0952 5.03343 7.98458 4.91749L7.63663 4.62886C7.52601 4.51292 7.51373 4.32029 7.60639 4.21692L9.63935 1.91608C9.75376 1.78019 9.95138 1.76608 10.062 1.88202ZM10.6472 3.15219L9.00669 5.00704C10.4541 6.29603 10.1037 5.98691 9.62685 5.56627L9.62682 5.56623L9.62681 5.56623L9.62678 5.5662C8.84586 4.87729 7.7261 3.88947 13.6094 9.13284L15.2499 7.27799L10.6472 3.15219ZM14.2277 10.4239L13.8741 10.1086C13.7417 10.0251 13.7294 9.83249 13.8438 9.69661L15.8825 7.42245C16.0025 7.31325 16.2002 7.29914 16.3108 7.41508L16.6644 7.7304C16.775 7.84634 16.7873 8.03897 16.6946 8.14234L14.656 10.4165C14.5359 10.5257 14.3383 10.5398 14.2277 10.4239ZM11.4063 9.01539L11.9349 8.401C11.5037 8.01653 11.2777 7.81186 11.1144 7.66397L11.1144 7.66396C10.809 7.38736 10.7229 7.30939 9.92379 6.62504L9.37347 7.27195C11.1933 8.85042 10.9834 8.65503 10.8748 8.55397C10.8031 8.48722 10.7756 8.46162 11.4063 9.01539ZM4.97176 15.8219C4.60677 16.2621 3.92599 16.2952 3.46742 15.8906C3.00886 15.4861 2.94931 14.8014 3.36914 14.3496L9.48312 8.0575C9.88086 8.40062 9.92015 8.43566 10.0904 8.58748C10.1755 8.66339 10.2934 8.76849 10.5052 8.9559L4.97176 15.8219Z" fill="white"/>
<path d="M2.94934 13.9926L2.76827 13.8202L2.77005 13.8184L2.94934 13.9926ZM9.06332 7.70047L9.22809 7.51245L9.42604 7.68592L9.24262 7.87469L9.06332 7.70047ZM3.14593 16.2658L3.29637 16.0661L3.30532 16.0729L3.31364 16.0804L3.14593 16.2658ZM5.46815 16.1348L5.66343 16.2909L5.66316 16.2912L5.46815 16.1348ZM10.9468 9.28042L10.7515 9.12433L10.9187 8.91514L11.1159 9.09632L10.9468 9.28042ZM11.2673 9.57488L11.134 9.78637L11.1148 9.7743L11.0981 9.75898L11.2673 9.57488ZM11.4819 9.64082L11.4299 9.39628L11.4819 9.64082ZM11.5093 9.63499L11.5613 9.87953L11.5093 9.63499ZM11.6625 9.54665L11.8512 9.71068L11.8353 9.72893L11.8162 9.7438L11.6625 9.54665ZM12.3764 8.72551L12.1877 8.56149L12.3551 8.36894L12.5442 8.54022L12.3764 8.72551ZM13.2992 9.56135L13.467 9.37605L13.6032 9.49934L13.5262 9.66609L13.2992 9.56135ZM13.5034 10.522L13.6682 10.334L13.6698 10.3354L13.5034 10.522ZM13.857 10.8373L13.6906 11.0239L13.857 10.8373ZM15.0758 10.7735L15.262 10.9404L15.2581 10.9446L15.0758 10.7735ZM17.1144 8.49937L17.3026 8.66399L17.3006 8.66625L17.1144 8.49937ZM17.0407 7.3436L16.8743 7.53019L17.0407 7.3436ZM16.6871 7.02829L16.8519 6.84026L16.8535 6.84169L16.6871 7.02829ZM15.6868 6.90622L15.8067 7.12557L15.6531 7.20957L15.5216 7.09392L15.6868 6.90622ZM10.9631 2.75037L10.7979 2.93807L10.6669 2.82278L10.7299 2.66004L10.9631 2.75037ZM10.7589 1.78968L10.5941 1.97771L10.5925 1.97628L10.7589 1.78968ZM10.4052 1.47437L10.2387 1.66119L10.2298 1.65252L10.4052 1.47437ZM9.18646 1.53819L9.37462 1.7028L9.3738 1.70372L9.18646 1.53819ZM7.1535 3.83903L6.96534 3.67442L6.96615 3.6735L7.1535 3.83903ZM7.22721 4.9948L7.06749 5.18734L7.06083 5.18139L7.22721 4.9948ZM7.57515 5.28343L7.73493 5.09082L7.74332 5.09844L7.57515 5.28343ZM8.56984 5.37881L8.4499 5.15946L8.60589 5.07416L8.73767 5.19352L8.56984 5.37881ZM9.49264 6.21464L9.66047 6.02935L9.84124 6.19308L9.68202 6.37784L9.49264 6.21464ZM8.757 7.06829L8.5492 6.9293L8.55767 6.91663L8.56762 6.90509L8.757 7.06829ZM8.78157 7.45355L8.94355 7.26309L8.94633 7.26553L8.78157 7.45355ZM10.4099 2.17065L10.5696 1.97824L10.5808 1.98754L10.5908 1.99807L10.4099 2.17065ZM10.062 1.88202L9.90239 2.07444L9.89118 2.06514L9.88112 2.0546L10.062 1.88202ZM10.4345 2.55591L10.246 2.39169L10.2484 2.38903L10.4345 2.55591ZM8.40723 4.88344L8.21596 4.72239L8.21871 4.71924L8.40723 4.88344ZM7.98458 4.91749L8.14419 4.72508L8.1554 4.73438L8.16545 4.74491L7.98458 4.91749ZM7.63663 4.62886L7.47702 4.82127L7.46581 4.81197L7.45575 4.80144L7.63663 4.62886ZM7.60639 4.21692L7.79374 4.38246L7.79254 4.38379L7.60639 4.21692ZM9.63935 1.91608L9.83064 2.07714L9.8267 2.08161L9.63935 1.91608ZM9.00669 5.00704L8.84042 5.19374L8.65436 5.02804L8.81942 4.84141L9.00669 5.00704ZM10.6472 3.15219L10.46 2.98657L10.6267 2.79805L10.8141 2.96604L10.6472 3.15219ZM9.62685 5.56627L9.7913 5.37796L9.79224 5.37879L9.62685 5.56627ZM9.62682 5.56623L9.46212 5.75483L9.45218 5.74513L9.62682 5.56623ZM9.62681 5.56623L9.78991 5.37676L9.79584 5.38187L9.80145 5.38734L9.62681 5.56623ZM9.62678 5.5662L9.46367 5.75569L9.46139 5.75368L9.62678 5.5662ZM13.6094 9.13284L13.7966 9.29846L13.6304 9.48644L13.443 9.31947L13.6094 9.13284ZM15.2499 7.27799L15.4168 7.09183L15.6017 7.2576L15.4372 7.44362L15.2499 7.27799ZM13.8741 10.1086L14.0074 9.89705L14.0249 9.90813L14.0405 9.92196L13.8741 10.1086ZM14.2277 10.4239L14.3941 10.2373L14.4016 10.244L14.4086 10.2513L14.2277 10.4239ZM13.8438 9.69661L13.6525 9.53551L13.6577 9.52973L13.8438 9.69661ZM15.8825 7.42245L15.6963 7.25558L15.7048 7.24608L15.7143 7.23749L15.8825 7.42245ZM16.3108 7.41508L16.1444 7.60168L16.1369 7.59496L16.1299 7.58766L16.3108 7.41508ZM16.6644 7.7304L16.8308 7.54381L16.8383 7.55052L16.8453 7.55782L16.6644 7.7304ZM16.6946 8.14234L16.8808 8.30922L16.8808 8.30922L16.6946 8.14234ZM14.656 10.4165L14.8422 10.5834L14.8336 10.5929L14.8242 10.6015L14.656 10.4165ZM11.9349 8.401L12.1012 8.2144L12.2845 8.37786L12.1244 8.56404L11.9349 8.401ZM11.4063 9.01539L11.5958 9.17844L11.4311 9.36988L11.2413 9.20325L11.4063 9.01539ZM11.1144 7.66397L11.2816 7.4781L11.2822 7.47867L11.1144 7.66397ZM11.1144 7.66396L10.9472 7.84983L10.9466 7.84926L11.1144 7.66396ZM9.92379 6.62504L9.73337 6.46306L9.89589 6.272L10.0864 6.43516L9.92379 6.62504ZM9.37347 7.27195L9.20966 7.46081L9.02261 7.29857L9.18305 7.10997L9.37347 7.27195ZM10.8748 8.55397L10.7045 8.73697L10.7045 8.73697L10.8748 8.55397ZM3.46742 15.8906L3.30203 16.0781L3.46742 15.8906ZM4.97176 15.8219L5.16643 15.9788L5.1642 15.9815L4.97176 15.8219ZM3.36914 14.3496L3.18596 14.1794L3.18985 14.1754L3.36914 14.3496ZM9.48312 8.0575L9.30383 7.88328L9.46802 7.7143L9.64643 7.8682L9.48312 8.0575ZM10.0904 8.58748L10.2568 8.40088L10.2568 8.40088L10.0904 8.58748ZM10.5052 8.9559L10.6709 8.76868L10.8497 8.92689L10.6999 9.11278L10.5052 8.9559ZM2.77005 13.8184L8.88403 7.52624L9.24262 7.87469L3.12864 14.1668L2.77005 13.8184ZM2.9955 16.4655C2.12565 15.8101 2.03243 14.5931 2.76828 13.8202L3.1304 14.165C2.60109 14.7209 2.66476 15.5903 3.29637 16.0661L2.9955 16.4655ZM5.66316 16.2912C4.99742 17.1212 3.74772 17.1472 2.97823 16.4512L3.31364 16.0804C3.89243 16.6039 4.80609 16.5606 5.27313 15.9783L5.66316 16.2912ZM11.142 9.43651L5.66343 16.2909L5.27286 15.9787L10.7515 9.12433L11.142 9.43651ZM11.0981 9.75898L10.7776 9.46452L11.1159 9.09632L11.4364 9.39077L11.0981 9.75898ZM11.5339 9.88536C11.3371 9.92718 11.1845 9.81819 11.134 9.78637L11.4006 9.36338C11.418 9.37437 11.4295 9.38157 11.4403 9.38765C11.4505 9.39344 11.4559 9.39578 11.4581 9.39662C11.4598 9.3973 11.457 9.39601 11.4508 9.39531C11.444 9.39455 11.4366 9.39487 11.4299 9.39628L11.5339 9.88536ZM11.5613 9.87953L11.5339 9.88536L11.4299 9.39628L11.4574 9.39046L11.5613 9.87953ZM11.8162 9.7438C11.7793 9.77258 11.6834 9.85358 11.5613 9.87953L11.4574 9.39046C11.4458 9.39291 11.4439 9.39612 11.4554 9.38893C11.4607 9.38561 11.4675 9.38092 11.4768 9.37408C11.4862 9.36708 11.496 9.35943 11.5088 9.34951L11.8162 9.7438ZM12.5651 8.88954L11.8512 9.71068L11.4738 9.38262L12.1877 8.56149L12.5651 8.88954ZM13.1314 9.74664L12.2086 8.91081L12.5442 8.54022L13.467 9.37605L13.1314 9.74664ZM13.3386 10.7101C12.9736 10.3901 12.8688 9.89737 13.0722 9.4566L13.5262 9.66609C13.4157 9.90567 13.4697 10.1601 13.6682 10.334L13.3386 10.7101ZM13.6906 11.0239L13.337 10.7086L13.6698 10.3354L14.0234 10.6508L13.6906 11.0239ZM15.2581 10.9446C14.8411 11.3887 14.1487 11.4324 13.6906 11.0239L14.0234 10.6508C14.2726 10.873 14.6562 10.8552 14.8936 10.6024L15.2581 10.9446ZM17.3006 8.66625L15.262 10.9404L14.8897 10.6067L16.9283 8.3325L17.3006 8.66625ZM17.2071 7.15701C17.665 7.56529 17.691 8.22005 17.3026 8.66398L16.9263 8.33476C17.1374 8.09344 17.1237 7.75255 16.8743 7.53019L17.2071 7.15701ZM16.8535 6.84169L17.2071 7.15701L16.8743 7.53019L16.5207 7.21488L16.8535 6.84169ZM15.5668 6.68687C15.9995 6.45028 16.4972 6.52947 16.8519 6.84027L16.5223 7.21631C16.3135 7.03327 16.0416 6.99714 15.8067 7.12557L15.5668 6.68687ZM11.1282 2.56267L15.8519 6.71852L15.5216 7.09392L10.7979 2.93807L11.1282 2.56267ZM10.9236 1.60166C11.2996 1.93118 11.3558 2.42883 11.1962 2.84069L10.7299 2.66004C10.8295 2.40323 10.7816 2.14201 10.5941 1.9777L10.9236 1.60166ZM10.5716 1.28777L10.9252 1.60309L10.5925 1.97628L10.2389 1.66096L10.5716 1.28777ZM8.9983 1.37358C9.19817 1.14511 9.48744 1.02443 9.7713 1.00779C10.0555 0.991135 10.3587 1.0777 10.5806 1.29622L10.2298 1.65252C10.1256 1.54989 9.96922 1.49705 9.80055 1.50693C9.63151 1.51684 9.47448 1.58864 9.37461 1.7028L8.9983 1.37358ZM6.96615 3.6735L8.99911 1.37265L9.3738 1.70372L7.34084 4.00456L6.96615 3.6735ZM7.06083 5.18139C6.60296 4.77311 6.57697 4.11835 6.96534 3.67442L7.34166 4.00364C7.13054 4.24496 7.14423 4.58585 7.39359 4.80821L7.06083 5.18139ZM7.41554 5.47584L7.06759 5.18721L7.38682 4.80238L7.73477 5.09102L7.41554 5.47584ZM8.68978 5.59816C8.26771 5.82895 7.73887 5.77013 7.40698 5.46841L7.74332 5.09844C7.90876 5.24885 8.20442 5.29369 8.4499 5.15946L8.68978 5.59816ZM9.32481 6.39993L8.40201 5.5641L8.73767 5.19352L9.66047 6.02935L9.32481 6.39993ZM8.56762 6.90509L9.30326 6.05144L9.68202 6.37784L8.94638 7.23149L8.56762 6.90509ZM8.6196 7.64399C8.39146 7.44996 8.41282 7.13319 8.5492 6.9293L8.9648 7.20729C8.94965 7.22992 8.94625 7.25064 8.9469 7.2621C8.94748 7.27238 8.9501 7.26869 8.94353 7.26311L8.6196 7.64399ZM8.89856 7.88848L8.6168 7.64157L8.94633 7.26553L9.22809 7.51245L8.89856 7.88848ZM10.2503 2.36307L9.90239 2.07444L10.2216 1.68961L10.5696 1.97824L10.2503 2.36307ZM10.2484 2.38903C10.247 2.39056 10.2493 2.38981 10.2489 2.38212C10.2484 2.37437 10.2447 2.35958 10.2291 2.34323L10.5908 1.99807C10.7784 2.19469 10.8126 2.50869 10.6207 2.72278L10.2484 2.38903ZM8.21871 4.71924L10.246 2.39171L10.623 2.72011L8.59574 5.04763L8.21871 4.71924ZM8.16545 4.74491C8.16551 4.74497 8.1654 4.74485 8.16519 4.74472C8.16501 4.74461 8.16508 4.74469 8.16555 4.74485C8.16655 4.74521 8.16971 4.74607 8.17512 4.74565C8.18613 4.74479 8.20212 4.73889 8.21599 4.72242L8.59847 5.04446C8.40343 5.27609 8.03274 5.33013 7.8037 5.09007L8.16545 4.74491ZM7.79625 4.43645L8.14419 4.72508L7.82496 5.1099L7.47702 4.82127L7.79625 4.43645ZM7.79254 4.38379C7.80133 4.37399 7.79294 4.37608 7.79466 4.40063C7.79627 4.42351 7.80597 4.44418 7.81751 4.45628L7.45575 4.80144C7.35668 4.69759 7.30492 4.56398 7.2959 4.43572C7.28699 4.30913 7.31879 4.16321 7.42024 4.05004L7.79254 4.38379ZM9.8267 2.08161L7.79374 4.38245L7.41904 4.05138L9.452 1.75054L9.8267 2.08161ZM9.88112 2.0546C9.88106 2.05454 9.88118 2.05466 9.88138 2.05479C9.88156 2.0549 9.8815 2.05483 9.88102 2.05466C9.88002 2.0543 9.87687 2.05344 9.87145 2.05386C9.86044 2.05472 9.84446 2.06062 9.83059 2.0771L9.44811 1.75505C9.64314 1.52342 10.0138 1.46938 10.2429 1.70944L9.88112 2.0546ZM8.81942 4.84141L10.46 2.98657L10.8345 3.31782L9.19395 5.17267L8.81942 4.84141ZM9.79224 5.37879C9.9115 5.484 10.0227 5.58206 10.0998 5.64991C10.1384 5.68392 10.1681 5.70997 10.186 5.72549C10.1904 5.72935 10.1939 5.73239 10.1965 5.73466C10.1995 5.73722 10.2004 5.73795 10.2 5.73766C10.1998 5.73751 10.1992 5.73698 10.1983 5.73622C10.1977 5.73576 10.1952 5.73376 10.1919 5.73124C10.1904 5.73011 10.1866 5.72727 10.1815 5.72388C10.179 5.72216 10.1725 5.71804 10.1685 5.7157C10.1622 5.71211 10.1439 5.70298 10.1316 5.6979C10.1029 5.68881 9.98367 5.68817 9.90159 5.72441C9.81908 5.81804 9.79816 5.98652 9.81281 6.03118C9.82064 6.0475 9.83463 6.07093 9.8399 6.07845C9.84318 6.08285 9.84884 6.09 9.85116 6.09278C9.86339 6.10721 9.87787 6.11989 9.86838 6.1111C9.83709 6.08209 9.56606 5.83996 8.84042 5.19374L9.17295 4.82034C9.89471 5.46311 10.1722 5.71092 10.2083 5.74444C10.2098 5.74577 10.2117 5.74758 10.2137 5.7495C10.2147 5.75042 10.2164 5.75205 10.2184 5.75405C10.2187 5.75435 10.2253 5.76087 10.2326 5.76956C10.235 5.77238 10.2407 5.77957 10.244 5.78399C10.2493 5.79154 10.2633 5.81499 10.2711 5.83133C10.2858 5.87601 10.2649 6.0445 10.1824 6.13813C10.1003 6.17438 9.98104 6.17374 9.95229 6.16464C9.94003 6.15955 9.92161 6.1504 9.91527 6.1468C9.91132 6.14443 9.90479 6.14029 9.90216 6.13854C9.89702 6.13508 9.89311 6.13216 9.89145 6.13091C9.88561 6.12652 9.88073 6.12243 9.88023 6.12201C9.87476 6.11746 9.86627 6.1101 9.85765 6.1026C9.83873 6.08613 9.80815 6.05929 9.76952 6.02531C9.69207 5.95718 9.58061 5.85885 9.46147 5.75374L9.79224 5.37879ZM9.79126 5.37793L9.7913 5.37796L9.46241 5.75457L9.46237 5.75454L9.79126 5.37793ZM9.80145 5.38734L9.80145 5.38734L9.45218 5.74513L9.45218 5.74512L9.80145 5.38734ZM9.78988 5.37673L9.78991 5.37676L9.46372 5.7557L9.46369 5.75568L9.78988 5.37673ZM13.443 9.31947C10.5017 6.69803 9.31016 5.63358 8.95168 5.31067C8.90686 5.27029 8.87462 5.24111 8.85347 5.2218C8.84304 5.21227 8.83457 5.20447 8.82841 5.19869C8.8256 5.19605 8.82181 5.19247 8.81815 5.18884C8.81681 5.18751 8.81258 5.18332 8.80774 5.17798C8.80608 5.17615 8.79929 5.1687 8.79169 5.15844C8.78719 5.15217 8.77572 5.13405 8.76918 5.12191C8.7571 5.09375 8.7443 4.97921 8.76887 4.8976C8.84691 4.80617 9.00779 4.75989 9.05641 4.76773C9.0751 4.77346 9.10228 4.78481 9.11113 4.78936C9.12477 4.7967 9.13478 4.8038 9.13661 4.80509C9.14307 4.80963 9.14815 4.81366 9.14954 4.81475C9.15362 4.81799 9.15759 4.8213 9.16026 4.82354C9.16623 4.82855 9.17402 4.83522 9.18282 4.84282C9.20074 4.85829 9.22614 4.88043 9.25694 4.9074C9.38027 5.01536 9.59713 5.20667 9.79217 5.37873L9.46139 5.75368C9.26597 5.58128 9.05002 5.39078 8.92761 5.28361C8.89698 5.2568 8.87264 5.23559 8.85609 5.2213C8.84766 5.21402 8.84204 5.20922 8.83886 5.20655C8.83696 5.20496 8.83742 5.20538 8.83912 5.20673C8.83932 5.20688 8.84349 5.21022 8.84932 5.21432C8.85084 5.21539 8.86061 5.22234 8.87408 5.22959C8.88285 5.23409 8.90997 5.24541 8.92861 5.25113C8.97718 5.25895 9.13803 5.21268 9.21606 5.12127C9.24063 5.03968 9.22783 4.92518 9.21577 4.89707C9.20927 4.88499 9.19784 4.86693 9.19341 4.86075C9.18593 4.85066 9.17935 4.84345 9.17797 4.84193C9.17367 4.8372 9.17031 4.83389 9.17013 4.83371C9.1688 4.8324 9.16858 4.83223 9.17063 4.83415C9.17419 4.8375 9.1806 4.84342 9.19066 4.8526C9.21049 4.87071 9.24169 4.89895 9.28633 4.93916C9.64355 5.26095 10.8338 6.32427 13.7757 8.9462L13.443 9.31947ZM15.4372 7.44362L13.7966 9.29846L13.4221 8.96721L15.0626 7.11236L15.4372 7.44362ZM10.8141 2.96604L15.4168 7.09183L15.083 7.46415L10.4804 3.33835L10.8141 2.96604ZM14.0405 9.92196L14.3941 10.2373L14.0613 10.6105L13.7077 10.2951L14.0405 9.92196ZM14.0351 9.85763C14.0178 9.87809 14.0152 9.8968 14.0158 9.90471C14.016 9.90834 14.0168 9.90812 14.0152 9.90539C14.0134 9.90215 14.0103 9.89893 14.0074 9.89705L13.7408 10.32C13.4453 10.1338 13.4689 9.75372 13.6526 9.53559L14.0351 9.85763ZM16.0686 7.58933L14.03 9.86348L13.6577 9.52973L15.6963 7.25558L16.0686 7.58933ZM16.1299 7.58766C16.1299 7.58762 16.1299 7.58761 16.1297 7.58753C16.1296 7.58743 16.1289 7.58702 16.1275 7.58649C16.1245 7.58539 16.1183 7.58386 16.1087 7.58419C16.0878 7.58491 16.0655 7.59395 16.0507 7.60741L15.7143 7.23749C15.9099 7.0596 16.2657 7.0057 16.4917 7.24251L16.1299 7.58766ZM16.498 7.91699L16.1444 7.60168L16.4772 7.22849L16.8308 7.54381L16.498 7.91699ZM16.5085 7.97547C16.4997 7.98527 16.5081 7.98318 16.5064 7.95863C16.5048 7.93575 16.4951 7.91508 16.4835 7.90298L16.8453 7.55782C16.9444 7.66167 16.9961 7.79528 17.0051 7.92354C17.014 8.05013 16.9822 8.19605 16.8808 8.30922L16.5085 7.97547ZM14.4699 10.2496L16.5085 7.97547L16.8808 8.30922L14.8422 10.5834L14.4699 10.2496ZM14.4086 10.2513C14.4086 10.2513 14.4086 10.2513 14.4087 10.2514C14.4089 10.2515 14.4096 10.2519 14.411 10.2525C14.414 10.2536 14.4202 10.2551 14.4297 10.2548C14.4507 10.254 14.473 10.245 14.4878 10.2315L14.8242 10.6015C14.6286 10.7793 14.2727 10.8333 14.0468 10.5964L14.4086 10.2513ZM12.1244 8.56404L11.5958 9.17844L11.2168 8.85235L11.7453 8.23795L12.1244 8.56404ZM11.2822 7.47867C11.4452 7.62629 11.6707 7.8305 12.1012 8.2144L11.7685 8.58759C11.3367 8.20255 11.1102 7.99742 10.9466 7.84928L11.2822 7.47867ZM11.2816 7.47809L11.2816 7.47811L10.9472 7.84984L10.9472 7.84982L11.2816 7.47809ZM10.0864 6.43516C10.8863 7.1202 10.9743 7.19985 11.2822 7.47865L10.9466 7.84926C10.6436 7.57487 10.5594 7.49858 9.76117 6.81493L10.0864 6.43516ZM9.18305 7.10997L9.73337 6.46306L10.1142 6.78703L9.56389 7.43394L9.18305 7.10997ZM11.0452 8.37097C11.0585 8.38338 11.0746 8.39836 11.0882 8.41127C11.0951 8.41782 11.1192 8.4403 11.1345 8.45881C11.1371 8.46196 11.1459 8.4726 11.1551 8.48733C11.1591 8.49379 11.1696 8.51109 11.1783 8.53527C11.1813 8.5437 11.2151 8.62944 11.1692 8.7267C11.1049 8.86305 10.971 8.87171 10.9313 8.86986C10.8892 8.8679 10.8581 8.85549 10.8502 8.85235C10.8286 8.84375 10.8128 8.83385 10.8096 8.83186C10.7931 8.82166 10.7775 8.80916 10.7724 8.80513C10.7547 8.79112 10.7267 8.76805 10.6864 8.73408C10.5232 8.59679 10.1192 8.24969 9.20966 7.46081L9.53728 7.0831C10.4476 7.87268 10.8486 8.21711 11.0083 8.35149C11.0486 8.38543 11.0713 8.40403 11.0823 8.41275C11.0916 8.42008 11.0849 8.41421 11.0729 8.40681C11.0708 8.40552 11.056 8.39609 11.0349 8.38773C11.0273 8.38471 10.9965 8.37235 10.9545 8.3704C10.915 8.36856 10.7812 8.37717 10.717 8.51343C10.6711 8.61059 10.7048 8.69618 10.7078 8.7044C10.7164 8.72838 10.7268 8.74543 10.7306 8.75158C10.7394 8.7657 10.7476 8.77554 10.7494 8.77771C10.7582 8.78836 10.7623 8.79133 10.7441 8.77401C10.7325 8.76306 10.7183 8.74982 10.7045 8.73697L11.0452 8.37097ZM11.2413 9.20325C10.9256 8.92606 10.7757 8.79479 10.7136 8.74108C10.6979 8.72745 10.6892 8.72004 10.6852 8.71671C10.6812 8.71338 10.6856 8.7172 10.6924 8.72216C10.6939 8.72323 10.7012 8.72862 10.7114 8.73462C10.7153 8.73695 10.7288 8.74493 10.7475 8.75225C10.7563 8.75568 10.7766 8.76313 10.8036 8.76694C10.8235 8.76974 10.8935 8.77788 10.967 8.73384C11.0615 8.67717 11.0876 8.58287 11.0884 8.52275C11.0891 8.47343 11.0748 8.4369 11.07 8.42508C11.0587 8.39743 11.0449 8.37833 11.0424 8.37486C11.0339 8.36288 11.0262 8.35438 11.0251 8.35317C11.0179 8.34515 11.0187 8.34639 11.0452 8.37097L10.7045 8.73697C10.695 8.72817 10.6656 8.70118 10.6528 8.68689C10.6513 8.68529 10.6433 8.67648 10.6347 8.6643C10.6321 8.66072 10.6183 8.64152 10.607 8.61381C10.6021 8.60196 10.5878 8.56541 10.5885 8.51606C10.5893 8.45593 10.6154 8.36162 10.71 8.30494C10.7835 8.26089 10.8535 8.26903 10.8734 8.27183C10.9004 8.27565 10.9207 8.2831 10.9296 8.28655C10.9483 8.2939 10.962 8.30194 10.966 8.30434C10.9765 8.31051 10.9842 8.31616 10.9862 8.31759C10.995 8.32399 11.0032 8.33088 11.0052 8.33252C11.0131 8.33914 11.025 8.34928 11.0407 8.36289C11.1046 8.41814 11.2562 8.55095 11.5712 8.82753L11.2413 9.20325ZM3.63282 15.7032C3.99697 16.0245 4.51376 15.9826 4.77931 15.6623L5.1642 15.9815C4.69978 16.5416 3.85501 16.566 3.30203 16.0781L3.63282 15.7032ZM3.55229 14.5198C3.23498 14.8613 3.27201 15.3849 3.63282 15.7032L3.30203 16.0781C2.74571 15.5873 2.66364 14.7416 3.186 14.1794L3.55229 14.5198ZM9.66242 8.23172L3.54844 14.5238L3.18985 14.1754L9.30383 7.88328L9.66242 8.23172ZM9.92403 8.77407C9.7552 8.62352 9.71704 8.58947 9.31982 8.24679L9.64643 7.8682C10.0447 8.21178 10.0851 8.2478 10.2568 8.40088L9.92403 8.77407ZM10.3395 9.14313C10.1274 8.95543 10.0093 8.85009 9.92403 8.77407L10.2568 8.40088C10.3418 8.47668 10.4594 8.58156 10.6709 8.76868L10.3395 9.14313ZM4.7771 15.665L10.3106 8.79903L10.6999 9.11278L5.16641 15.9788L4.7771 15.665Z" fill="white"/>
</svg>
