<svg width="15" height="17" viewBox="0 0 15 17" fill="none" xmlns="http://www.w3.org/2000/svg">
<path fill-rule="evenodd" clip-rule="evenodd" d="M13.98 14.0757L12.7684 5.49527C12.6582 4.67508 11.9345 4.04416 11.1005 4.04416H10.5341C10.5498 2.37224 9.1809 1 7.4973 1C5.81369 1 4.44478 2.37224 4.44478 4.04416H3.87834C3.0444 4.04416 2.33635 4.65931 2.21047 5.49527L1.01464 14.0757C0.951703 14.5647 1.09331 15.0379 1.40801 15.4164C1.7227 15.7792 2.19474 16 2.66677 16H12.3278C12.8156 16 13.2719 15.795 13.5866 15.4164C13.9013 15.0379 14.0586 14.5489 13.98 14.0757ZM7.4973 2.32492C8.45711 2.32492 9.2281 3.09779 9.2281 4.04416H5.76649C5.76649 3.09779 6.53749 2.32492 7.4973 2.32492ZM12.3278 14.6593C12.4694 14.6593 12.5481 14.5804 12.5953 14.5331C12.5988 14.5278 12.603 14.5219 12.6075 14.5154C12.6435 14.4639 12.7054 14.3752 12.7054 14.2492L11.4939 5.66877C11.4624 5.4795 11.3051 5.35331 11.132 5.35331H3.89407C3.70526 5.35331 3.56365 5.49527 3.53218 5.66877L2.32061 14.2492C2.28914 14.3912 2.35208 14.4858 2.39929 14.5331C2.43075 14.5804 2.52516 14.6593 2.66677 14.6593H12.3278Z" fill="#4A4A4A"/>
<path d="M12.7684 5.49527L12.6693 5.50858L12.6694 5.50925L12.7684 5.49527ZM13.98 14.0757L13.8809 14.0897L13.8813 14.0921L13.98 14.0757ZM10.5341 4.04416L10.4341 4.04322L10.4331 4.14416H10.5341V4.04416ZM4.44478 4.04416V4.14416H4.54478V4.04416H4.44478ZM2.21047 5.49527L2.11158 5.48038L2.11143 5.48146L2.21047 5.49527ZM1.01464 14.0757L0.915593 14.0619L0.915459 14.0629L1.01464 14.0757ZM1.40801 15.4164L1.33109 15.4803L1.33247 15.4819L1.40801 15.4164ZM9.2281 4.04416V4.14416H9.3281V4.04416H9.2281ZM5.76649 4.04416H5.66649V4.14416H5.76649V4.04416ZM12.5953 14.5331L12.6661 14.6037L12.6731 14.5967L12.6786 14.5885L12.5953 14.5331ZM12.6075 14.5154L12.6895 14.5727L12.6895 14.5727L12.6075 14.5154ZM12.7054 14.2492H12.8064L12.8045 14.2352L12.7054 14.2492ZM11.4939 5.66877L11.5929 5.65478L11.5925 5.65237L11.4939 5.66877ZM3.53218 5.66877L3.43371 5.65091L3.43316 5.65479L3.53218 5.66877ZM2.32061 14.2492L2.41854 14.2709L2.41963 14.2632L2.32061 14.2492ZM2.39929 14.5331L2.48255 14.4777L2.47707 14.4695L2.47008 14.4625L2.39929 14.5331ZM12.6694 5.50925L13.8809 14.0897L14.079 14.0617L12.8674 5.48129L12.6694 5.50925ZM11.1005 4.14416C11.8848 4.14416 12.5659 4.73844 12.6693 5.50858L12.8675 5.48196C12.7506 4.61172 11.9841 3.94416 11.1005 3.94416V4.14416ZM10.5341 4.14416H11.1005V3.94416H10.5341V4.14416ZM7.4973 1.1C9.12597 1.1 10.4493 2.42755 10.4341 4.04322L10.6341 4.0451C10.6503 2.31693 9.23583 0.9 7.4973 0.9V1.1ZM4.54478 4.04416C4.54478 2.42758 5.86882 1.1 7.4973 1.1V0.9C5.75857 0.9 4.34478 2.3169 4.34478 4.04416H4.54478ZM3.87834 4.14416H4.44478V3.94416H3.87834V4.14416ZM2.30936 5.51016C2.428 4.72223 3.09478 4.14416 3.87834 4.14416V3.94416C2.99403 3.94416 2.24469 4.59638 2.11159 5.48038L2.30936 5.51016ZM1.11368 14.0895L2.30951 5.50907L2.11143 5.48146L0.915598 14.0619L1.11368 14.0895ZM1.4849 15.3525C1.18759 14.9948 1.05451 14.5493 1.11382 14.0885L0.915459 14.0629C0.8489 14.58 0.999036 15.0809 1.33111 15.4803L1.4849 15.3525ZM2.66677 15.9C2.22473 15.9 1.77991 15.6925 1.48355 15.3509L1.33247 15.4819C1.66548 15.8658 2.16474 16.1 2.66677 16.1V15.9ZM12.3278 15.9H2.66677V16.1H12.3278V15.9ZM13.5097 15.3525C13.2147 15.7073 12.787 15.9 12.3278 15.9V16.1C12.8442 16.1 13.3291 15.8826 13.6635 15.4803L13.5097 15.3525ZM13.8813 14.0921C13.9546 14.5327 13.8085 14.993 13.5097 15.3525L13.6635 15.4803C13.994 15.0827 14.1627 14.5651 14.0786 14.0593L13.8813 14.0921ZM9.3281 4.04416C9.3281 3.0422 8.51197 2.22492 7.4973 2.22492V2.42492C8.40224 2.42492 9.1281 3.15339 9.1281 4.04416H9.3281ZM5.76649 4.14416H9.2281V3.94416H5.76649V4.14416ZM7.4973 2.22492C6.48262 2.22492 5.66649 3.0422 5.66649 4.04416H5.86649C5.86649 3.15339 6.59235 2.42492 7.4973 2.42492V2.22492ZM12.5245 14.4625C12.4792 14.5079 12.426 14.5593 12.3278 14.5593V14.7593C12.5129 14.7593 12.617 14.653 12.6661 14.6037L12.5245 14.4625ZM12.5256 14.4581C12.5212 14.4644 12.5163 14.4713 12.512 14.4777L12.6786 14.5885C12.6813 14.5843 12.6848 14.5794 12.6895 14.5727L12.5256 14.4581ZM12.6054 14.2492C12.6054 14.3413 12.561 14.4074 12.5255 14.4581L12.6895 14.5727C12.7259 14.5205 12.8054 14.4091 12.8054 14.2492H12.6054ZM11.3949 5.68275L12.6064 14.2632L12.8045 14.2352L11.5929 5.65479L11.3949 5.68275ZM11.132 5.45331C11.2559 5.45331 11.3717 5.54382 11.3952 5.68517L11.5925 5.65237C11.5531 5.41517 11.3543 5.25331 11.132 5.25331V5.45331ZM3.89407 5.45331H11.132V5.25331H3.89407V5.45331ZM3.63057 5.68662C3.65474 5.55337 3.76068 5.45331 3.89407 5.45331V5.25331C3.64984 5.25331 3.47255 5.43717 3.43378 5.65092L3.63057 5.68662ZM2.41963 14.2632L3.63119 5.68275L3.43316 5.65479L2.22159 14.2352L2.41963 14.2632ZM2.47008 14.4625C2.43839 14.4307 2.39646 14.3691 2.41824 14.2709L2.22298 14.2276C2.18183 14.4132 2.26577 14.5409 2.32849 14.6037L2.47008 14.4625ZM2.66677 14.5593C2.56212 14.5593 2.4975 14.5002 2.48255 14.4777L2.31602 14.5885C2.36401 14.6607 2.48821 14.7593 2.66677 14.7593V14.5593ZM12.3278 14.5593H2.66677V14.7593H12.3278V14.5593Z" fill="#EFF6FF"/>
<path d="M9.00783 8.23955L6.9938 10.3689L5.98679 9.29633C5.73504 9.0282 5.32594 9.01242 5.05845 9.26479C4.79096 9.51715 4.77522 9.92725 5.02698 10.1954L6.52177 11.7727C6.64764 11.8989 6.82072 11.9777 6.9938 11.9777C7.16688 11.9777 7.3557 11.8989 7.46584 11.7727L9.96764 9.12283C10.2194 8.85469 10.2037 8.4446 9.93617 8.19223C9.68442 7.95564 9.25959 7.97141 9.00783 8.23955Z" fill="#0052BD" stroke="#EFF6FF" stroke-width="0.2"/>
</svg>
