<svg width="20" height="20" viewBox="0 0 20 20" fill="none" xmlns="http://www.w3.org/2000/svg">
<path fill-rule="evenodd" clip-rule="evenodd" d="M1.74239 20C1.83001 20 1.91377 19.9651 1.97561 19.9032L10.9835 10.8772L13.1135 13.0116C12.9936 13.1592 12.9177 13.336 12.9177 13.529C12.9177 13.7517 13.0043 13.9615 13.1615 14.1184L13.6731 14.6316C13.8303 14.7891 14.0393 14.8763 14.2619 14.8763C14.4842 14.8763 14.6933 14.7891 14.8501 14.6316L19.7558 9.71576C19.9133 9.55889 20 9.34908 20 9.12637C20 8.90366 19.9133 8.69385 19.7561 8.53698L19.2446 8.02377C19.0874 7.86626 18.8783 7.77911 18.6558 7.77911H18.6554C18.4332 7.77911 18.2241 7.86626 18.0676 8.02377L17.9952 8.09624L11.9204 2.00951L11.9928 1.93689C12.1497 1.77938 12.2364 1.56957 12.2364 1.34686C12.2364 1.12414 12.1497 0.91434 11.9925 0.757471L11.48 0.24426C11.1553 -0.0817426 10.6277 -0.081097 10.3036 0.24426L5.39726 5.16012C5.07353 5.48547 5.07353 6.01418 5.39759 6.33953L5.90977 6.85275H5.91009C6.07212 7.01542 6.28505 7.09612 6.49798 7.09612C6.68344 7.09612 6.86287 7.02333 7.01479 6.90036L9.10428 8.99411L0.0966386 18.0201C-0.0322129 18.1492 -0.0322129 18.3584 0.0966386 18.4875L1.50917 19.9032C1.57102 19.9651 1.65477 20 1.74239 20ZM18.6558 8.44015C18.7018 8.44015 18.745 8.45823 18.7778 8.49115L19.29 9.00436C19.3222 9.03728 19.3403 9.08054 19.3403 9.12637C19.3403 9.1722 19.3222 9.21546 19.2897 9.24838L14.3834 14.1642C14.318 14.2301 14.2049 14.2301 14.1402 14.1642H14.1398L13.6277 13.651C13.5954 13.6181 13.5774 13.5748 13.5774 13.529C13.5774 13.4832 13.5954 13.4399 13.628 13.407L13.8012 13.2334L13.8013 13.2334L15.4019 11.6294L18.5343 8.4905C18.5668 8.45823 18.6097 8.44015 18.6558 8.44015ZM13.5681 12.5323L17.5286 8.56345L11.4539 2.47689L7.49336 6.44508L9.80362 8.7601L9.80398 8.76034L11.2168 10.176L11.2172 10.1766L13.5681 12.5323ZM6.37589 6.38537L5.86435 5.87216C5.79703 5.80502 5.79703 5.69463 5.86403 5.62749L10.7697 0.711637C10.8374 0.6445 10.9469 0.6445 11.0139 0.711637L11.5264 1.22485C11.5586 1.25777 11.5767 1.30102 11.5767 1.34686C11.5767 1.39334 11.5586 1.43659 11.5261 1.46951L11.2214 1.77482L11.2204 1.7755L6.79337 6.21107C6.79322 6.21122 6.79309 6.21138 6.79297 6.21155C6.79274 6.21187 6.79255 6.21222 6.79237 6.21257C6.7921 6.21307 6.79183 6.21356 6.79144 6.21398L6.62039 6.38537C6.55242 6.45315 6.44322 6.45186 6.37589 6.38537ZM10.5171 10.4098L9.57068 9.46149L0.796302 18.2538L1.74239 19.2021L10.5171 10.4098Z" fill="#6E768C"/>
</svg>
