<svg width="31" height="30" viewBox="0 0 31 30" fill="none" xmlns="http://www.w3.org/2000/svg">
<path fill-rule="evenodd" clip-rule="evenodd" d="M0.664062 15C0.664062 6.71595 7.37969 0 15.6637 0C23.9477 0 30.6641 6.71569 30.6641 15C30.6641 23.2838 23.9477 30 15.6637 30C7.37969 30 0.664062 23.2841 0.664062 15ZM7.73916 22.6847H22.1923V21.8021H20.8869H19.8495V20.7646V19.1234V18.2859H18.8318L16.3077 14.3503L15.3117 15.9034L16.8399 18.2861H15.9158L14.8498 16.6241L12.7033 13.2773L9.49141 18.2861H8.69647V8.9833H22.6153V15.7436H23.23H24.3095V8.03533C24.3095 7.63746 23.9871 7.31507 23.589 7.31507H7.73916C7.34105 7.31507 7.01866 7.63746 7.01866 8.03533V21.9644C7.01866 22.3625 7.34105 22.6847 7.73916 22.6847ZM21.3906 12.1042C21.3906 12.9274 20.723 13.595 19.8998 13.595C19.0766 13.595 18.409 12.9274 18.409 12.1042C18.409 11.281 19.0766 10.6134 19.8998 10.6134C20.723 10.6134 21.3906 11.2813 21.3906 12.1042ZM24.871 23.1072V20.7649H27.2135V19.1236H24.871V16.7813H24.3097H23.2303V19.1236H20.8875V20.7649H23.2303V22.6847V23.1072H24.871Z" fill="#BABEC2"/>
</svg>
