<svg width="16" height="15" viewBox="0 0 16 15" fill="none" xmlns="http://www.w3.org/2000/svg">
<path d="M13.5781 6.07422H15.6387V7.07031H13.5781V9.00391H15.6387V10H13.5781V15H12.3672L9.00781 10H4.19336V15H2.99219V10H0.951172V9.00391H2.99219V7.07031H0.951172V6.07422H2.99219V0.78125H4.19336L7.74805 6.07422H12.377V0.78125H13.5781V6.07422ZM4.19336 9.00391H8.33398L7.03516 7.07031H4.19336V9.00391ZM9.7207 9.00391H12.377V7.07031H8.42188L9.7207 9.00391ZM4.19336 6.07422H6.37109L4.19336 2.83203V6.07422ZM12.377 12.959V10H10.3848L12.377 12.959Z" fill="#0052BD"/>
</svg>
