<svg width="20" height="20" viewBox="0 0 20 20" fill="none" xmlns="http://www.w3.org/2000/svg">
<path opacity="0.6" d="M8.3444 8.34415V10H10.0002V8.34415H8.3444ZM8.3444 11.6558H10.0002V10H8.3444V11.6558ZM11.6561 11.6558V10H10.0002V11.6558H11.6561ZM11.6561 8.34415H10.0002V10H11.6561V8.34415ZM10.0002 3.35384H13.3119C13.3119 1.52485 11.8292 0.0421516 10.0002 0.0421516V3.35384ZM10.0002 3.35384V0.0421516C8.17124 0.0421516 6.68855 1.52485 6.68855 3.35384H10.0002ZM10.0002 8.34415V3.35384H6.68855V8.34415H10.0002ZM3.35409 10H8.3444V6.68831H3.35409V10ZM3.35409 10H3.35409V6.68831C1.52509 6.68831 0.0423957 8.171 0.0423957 10H3.35409ZM3.35409 10H3.35409H0.0423957C0.0423957 11.829 1.52509 13.3117 3.35409 13.3117V10ZM8.3444 10H3.35409V13.3117H8.3444V10ZM10.0002 16.6462V11.6558H6.68855V16.6462H10.0002ZM10.0002 16.6462H6.68855C6.68855 18.4751 8.17124 19.9578 10.0002 19.9578V16.6462ZM10.0002 16.6462V19.9578C11.8292 19.9578 13.3119 18.4751 13.3119 16.6462H10.0002ZM10.0002 11.6558V16.6462H13.3119V11.6558H10.0002ZM16.6464 10H11.6561V13.3117H16.6464V10ZM16.6464 10V13.3117C18.4754 13.3117 19.9581 11.829 19.9581 10H16.6464ZM16.6464 10H19.9581C19.9581 8.171 18.4754 6.68831 16.6464 6.68831V10ZM11.6561 10H16.6464V6.68831H11.6561V10ZM10.0002 3.35384V8.34415H13.3119V3.35384H10.0002Z" fill="#0052BD"/>
</svg>
