<svg width="23" height="22" viewBox="0 0 23 22" fill="none" xmlns="http://www.w3.org/2000/svg">
<path d="M8.59045 20.6602C9.11988 20.6602 9.54907 20.2339 9.54907 19.708C9.54907 19.1822 9.11988 18.7559 8.59045 18.7559C8.06102 18.7559 7.63184 19.1822 7.63184 19.708C7.63184 20.2339 8.06102 20.6602 8.59045 20.6602Z" stroke="#3160D8" stroke-width="1.2" stroke-linecap="round" stroke-linejoin="round"/>
<path d="M19.15 20.6602C19.6795 20.6602 20.1086 20.2339 20.1086 19.708C20.1086 19.1822 19.6795 18.7559 19.15 18.7559C18.6206 18.7559 18.1914 19.1822 18.1914 19.708C18.1914 20.2339 18.6206 20.6602 19.15 20.6602Z" stroke="#3160D8" stroke-width="1.2" stroke-linecap="round" stroke-linejoin="round"/>
<path d="M0.915039 0.660156H4.74868L7.31574 13.4071C7.40348 13.8454 7.64361 14.2391 7.9941 14.5193C8.34459 14.7995 8.78312 14.9483 9.23294 14.9397H18.5501C18.9999 14.9483 19.4384 14.7995 19.7889 14.5193C20.1394 14.2391 20.3796 13.8454 20.4673 13.4071L21.9997 5.42025H5.70728" stroke="#3160D8" stroke-width="1.2" stroke-linecap="round" stroke-linejoin="round"/>
</svg>
