<svg width="20" height="22" viewBox="0 0 20 22" fill="none" xmlns="http://www.w3.org/2000/svg">
<path d="M18.5383 20.9995V18.7774C18.5383 18.1939 18.4249 17.6161 18.2046 17.077C17.9843 16.5379 17.6613 16.048 17.2542 15.6354C16.847 15.2228 16.3637 14.8955 15.8318 14.6722C15.2998 14.4489 14.7297 14.334 14.154 14.334H5.38437C4.22156 14.334 3.10638 14.8021 2.28415 15.6354C1.46192 16.4687 1 17.5989 1 18.7774V20.9995" stroke="#91C73C" stroke-width="1.2" stroke-linecap="round" stroke-linejoin="round"/>
<path d="M9.73492 9.88687C12.1563 9.88687 14.1193 7.89748 14.1193 5.44344C14.1193 2.98939 12.1563 1 9.73492 1C7.31352 1 5.35059 2.98939 5.35059 5.44344C5.35059 7.89748 7.31352 9.88687 9.73492 9.88687Z" stroke="#91C73C" stroke-width="1.2" stroke-linecap="round" stroke-linejoin="round"/>
</svg>
